<svg width="88" height="86" viewBox="0 0 88 86" fill="none" xmlns="http://www.w3.org/2000/svg">
<g filter="url(#filter0_d)">
<path d="M66.9408 16.5625C66.9408 11.1256 63.383 2.5 53.8361 2.5C49.9136 2.5 46.6141 4.34922 44.0002 8.00453C41.3863 4.34922 38.0866 2.5 34.1643 2.5C24.6172 2.5 21.0596 11.1256 21.0596 16.5625C21.0596 25.9364 28.3755 31.8 38.37 40.3464C39.8386 41.602 41.3572 42.9006 42.9763 44.3053C43.27 44.5602 43.635 44.6875 44.0002 44.6875C44.3654 44.6875 44.7304 44.5602 45.0241 44.3053C46.6432 42.9006 48.1618 41.602 49.6304 40.3464C60.0938 31.3991 66.9408 25.7383 66.9408 16.5625ZM44.0002 41.0588C42.7516 39.9813 41.5608 38.963 40.401 37.9711C29.9444 29.03 24.1846 24.1047 24.1846 16.5625C24.1846 11.4464 27.5316 5.625 34.1643 5.625C37.6257 5.625 40.3946 7.6125 42.6293 11.7009C42.9032 12.2022 43.4289 12.5141 44.0002 12.5141C44.5714 12.5141 45.0972 12.2022 45.3711 11.7009C47.6058 7.6125 50.3747 5.625 53.8361 5.625C60.3761 5.625 63.8158 11.36 63.8158 16.5625C63.8158 24.1047 58.056 29.03 47.5994 37.9713C46.4396 38.963 45.2488 39.9813 44.0002 41.0588Z" fill="url(#paint0_linear)"/>
<path d="M15.2278 63.7678L22.75 67.5283V75.9375C22.75 76.8003 23.4497 77.5 24.3125 77.5H40.875C41.7378 77.5 42.4375 76.8003 42.4375 75.9375V55.5391C42.4375 50.7519 38.8464 46.782 34.0961 46.3058L33.9683 46.292C31.2188 46.0164 26.3503 44.1358 24.428 42.2136L20.9189 38.7059C19.7381 37.5253 18.1689 36.875 16.5 36.875V24.375C16.5 20.9288 13.6962 18.125 10.25 18.125C6.80375 18.125 4 20.9288 4 24.375V45.6C4 53.2897 8.34344 60.3248 15.2278 63.7678ZM7.125 24.375C7.125 22.6519 8.52688 21.25 10.25 21.25C11.9731 21.25 13.375 22.6519 13.375 24.375V37.7127C11.4694 38.8145 10.25 40.8689 10.25 43.125C10.25 44.7939 10.9003 46.3631 12.0811 47.5438L20.0827 55.5469C20.6927 56.1572 21.682 56.1572 22.2923 55.547C22.9025 54.937 22.9027 53.9477 22.2925 53.3373L14.2909 45.3341C13.7002 44.7436 13.375 43.9591 13.375 43.125C13.375 41.8025 14.212 40.6181 15.4581 40.178C15.4583 40.178 15.4586 40.1778 15.4587 40.1777C15.4591 40.1775 15.4595 40.1775 15.4598 40.1773C16.5377 39.7948 17.8161 40.0227 18.7094 40.9161L22.2184 44.4238C25.8412 48.0466 33.7564 49.4097 33.7722 49.4141C36.9306 49.7306 39.3123 52.3639 39.3123 55.5391V74.375H25.8748V66.5625C25.8748 65.9706 25.5403 65.4295 25.0111 65.165L16.6253 60.9728C10.7655 58.042 7.125 52.1516 7.125 45.6V24.375Z" fill="url(#paint1_linear)"/>
<path d="M75.7188 61.5625C76.5817 61.5625 77.2812 60.8629 77.2812 60C77.2812 59.1371 76.5817 58.4375 75.7188 58.4375C74.8558 58.4375 74.1562 59.1371 74.1562 60C74.1562 60.8629 74.8558 61.5625 75.7188 61.5625Z" fill="url(#paint2_linear)"/>
<path d="M77.75 18.125C74.3037 18.125 71.5 20.9288 71.5 24.375V36.875C69.8311 36.875 68.2619 37.5253 67.0814 38.7059L63.5717 42.2139C61.6497 44.1359 56.7812 46.0166 54.0195 46.2933L53.9161 46.3045C49.1536 46.782 45.5625 50.752 45.5625 55.5391V75.9375C45.5625 76.8003 46.2622 77.5 47.125 77.5H63.6875C64.5503 77.5 65.25 76.8003 65.25 75.9375V67.5283L70.3641 64.9717C71.1358 64.5858 71.4487 63.6473 71.063 62.8755C70.677 62.1038 69.7384 61.7905 68.9667 62.1766L62.9888 65.165C62.4595 65.4295 62.125 65.9706 62.125 66.5625V74.375H48.6875V55.5391C48.6875 52.3639 51.0692 49.7306 54.2398 49.4128L54.3433 49.4016C57.7325 49.0617 63.3442 46.8608 65.7811 44.4239L69.2908 40.9159C70.1866 40.0198 71.4675 39.7969 72.54 40.1773C72.5403 40.1775 72.5408 40.1775 72.5411 40.1777C72.5412 40.1777 72.5416 40.1778 72.5417 40.178C73.788 40.6181 74.625 41.8025 74.625 43.125C74.625 43.9591 74.2998 44.7436 73.7092 45.3344L65.7077 53.3375C65.0975 53.9477 65.0977 54.937 65.7078 55.5472C66.3177 56.1573 67.3073 56.1573 67.9175 55.547L75.9191 47.5441C77.0997 46.3631 77.75 44.7939 77.75 43.125C77.75 40.8689 76.5306 38.8145 74.625 37.7127V24.375C74.625 22.6519 76.0269 21.25 77.75 21.25C79.4731 21.25 80.875 22.6519 80.875 24.375V45.6C80.875 48.4587 80.1536 51.2969 78.7886 53.8075C78.3763 54.5658 78.6567 55.5144 79.415 55.9266C80.173 56.3387 81.122 56.0586 81.5341 55.3002C83.1473 52.3328 84 48.9786 84 45.6V24.375C84 20.9288 81.1963 18.125 77.75 18.125Z" fill="url(#paint3_linear)"/>
</g>
<defs>
<filter id="filter0_d" x="0" y="0" width="88" height="88" filterUnits="userSpaceOnUse" color-interpolation-filters="sRGB">
<feFlood flood-opacity="0" result="BackgroundImageFix"/>
<feColorMatrix in="SourceAlpha" type="matrix" values="0 0 0 0 0 0 0 0 0 0 0 0 0 0 0 0 0 0 127 0"/>
<feOffset dy="4"/>
<feGaussianBlur stdDeviation="2"/>
<feColorMatrix type="matrix" values="0 0 0 0 0 0 0 0 0 0 0 0 0 0 0 0 0 0 0.25 0"/>
<feBlend mode="normal" in2="BackgroundImageFix" result="effect1_dropShadow"/>
<feBlend mode="normal" in="SourceGraphic" in2="effect1_dropShadow" result="shape"/>
</filter>
<linearGradient id="paint0_linear" x1="12.4927" y1="2.5" x2="74.5134" y2="22.9753" gradientUnits="userSpaceOnUse">
<stop stop-color="#4BD8B5"/>
<stop offset="1" stop-color="#49D6DF"/>
</linearGradient>
<linearGradient id="paint1_linear" x1="-3.177" y1="18.125" x2="52.302" y2="29.0274" gradientUnits="userSpaceOnUse">
<stop stop-color="#4BD8B5"/>
<stop offset="1" stop-color="#49D6DF"/>
</linearGradient>
<linearGradient id="paint2_linear" x1="73.5728" y1="58.4375" x2="77.8622" y2="59.7396" gradientUnits="userSpaceOnUse">
<stop stop-color="#4BD8B5"/>
<stop offset="1" stop-color="#49D6DF"/>
</linearGradient>
<linearGradient id="paint3_linear" x1="38.3855" y1="18.125" x2="93.8645" y2="29.0274" gradientUnits="userSpaceOnUse">
<stop stop-color="#4BD8B5"/>
<stop offset="1" stop-color="#49D6DF"/>
</linearGradient>
</defs>
</svg>
