<svg width="253" height="63" viewBox="0 0 253 63" fill="none" xmlns="http://www.w3.org/2000/svg">
<g filter="url(#filter0_d)">
<rect x="4" width="245" height="55" rx="3" fill="url(#paint0_linear)"/>
<path d="M33.7744 30.667C33.7334 31.5576 33.4932 32.3457 33.0537 33.0312C32.6143 33.7109 31.9961 34.2383 31.1992 34.6133C30.4082 34.9883 29.5029 35.1758 28.4834 35.1758C26.8018 35.1758 25.4775 34.6279 24.5107 33.5322C23.5439 32.4365 23.0605 30.8896 23.0605 28.8916V28.2588C23.0605 27.0049 23.2773 25.9092 23.7109 24.9717C24.1504 24.0283 24.7803 23.3018 25.6006 22.792C26.4209 22.2764 27.3701 22.0186 28.4482 22.0186C30.001 22.0186 31.249 22.4287 32.1924 23.249C33.1357 24.0635 33.6719 25.1885 33.8008 26.624H30.7246C30.7012 25.8447 30.5049 25.2852 30.1357 24.9453C29.7666 24.6055 29.2041 24.4355 28.4482 24.4355C27.6807 24.4355 27.1182 24.7227 26.7607 25.2969C26.4033 25.8711 26.2158 26.7881 26.1982 28.0479V28.9531C26.1982 30.3184 26.3682 31.2939 26.708 31.8799C27.0537 32.4658 27.6455 32.7588 28.4834 32.7588C29.1924 32.7588 29.7344 32.5918 30.1094 32.2578C30.4844 31.9238 30.6836 31.3936 30.707 30.667H33.7744ZM45.9297 35H42.8623V29.6562H38.3184V35H35.2334V22.2031H38.3184V27.2832H42.8623V22.2031H45.9297V35ZM58.7266 28.8652C58.7266 30.1133 58.4951 31.2178 58.0322 32.1787C57.5693 33.1396 56.9102 33.8809 56.0547 34.4023C55.2051 34.918 54.2354 35.1758 53.1455 35.1758C52.0557 35.1758 51.0889 34.9268 50.2451 34.4287C49.4014 33.9248 48.7422 33.207 48.2676 32.2754C47.7988 31.3438 47.5527 30.2744 47.5293 29.0674V28.3467C47.5293 27.0928 47.7578 25.9883 48.2148 25.0332C48.6777 24.0723 49.3369 23.3311 50.1924 22.8096C51.0537 22.2881 52.0322 22.0273 53.1279 22.0273C54.2119 22.0273 55.1787 22.2852 56.0283 22.8008C56.8779 23.3164 57.5371 24.0518 58.0059 25.0068C58.4805 25.9561 58.7207 27.0459 58.7266 28.2764V28.8652ZM55.5889 28.3291C55.5889 27.0576 55.375 26.0938 54.9473 25.4375C54.5254 24.7754 53.9189 24.4443 53.1279 24.4443C51.5811 24.4443 50.7637 25.6045 50.6758 27.9248L50.667 28.8652C50.667 30.1191 50.875 31.083 51.291 31.7568C51.707 32.4307 52.3252 32.7676 53.1455 32.7676C53.9248 32.7676 54.5254 32.4365 54.9473 31.7744C55.3691 31.1123 55.583 30.1602 55.5889 28.918V28.3291ZM71.1543 28.8652C71.1543 30.1133 70.9229 31.2178 70.46 32.1787C69.9971 33.1396 69.3379 33.8809 68.4824 34.4023C67.6328 34.918 66.6631 35.1758 65.5732 35.1758C64.4834 35.1758 63.5166 34.9268 62.6729 34.4287C61.8291 33.9248 61.1699 33.207 60.6953 32.2754C60.2266 31.3438 59.9805 30.2744 59.957 29.0674V28.3467C59.957 27.0928 60.1855 25.9883 60.6426 25.0332C61.1055 24.0723 61.7646 23.3311 62.6201 22.8096C63.4814 22.2881 64.46 22.0273 65.5557 22.0273C66.6396 22.0273 67.6064 22.2852 68.4561 22.8008C69.3057 23.3164 69.9648 24.0518 70.4336 25.0068C70.9082 25.9561 71.1484 27.0459 71.1543 28.2764V28.8652ZM68.0166 28.3291C68.0166 27.0576 67.8027 26.0938 67.375 25.4375C66.9531 24.7754 66.3467 24.4443 65.5557 24.4443C64.0088 24.4443 63.1914 25.6045 63.1035 27.9248L63.0947 28.8652C63.0947 30.1191 63.3027 31.083 63.7188 31.7568C64.1348 32.4307 64.7529 32.7676 65.5732 32.7676C66.3525 32.7676 66.9531 32.4365 67.375 31.7744C67.7969 31.1123 68.0107 30.1602 68.0166 28.918V28.3291ZM79.3457 31.5986C79.3457 31.1475 79.1846 30.7959 78.8623 30.5439C78.5459 30.292 77.9863 30.0312 77.1836 29.7617C76.3809 29.4922 75.7246 29.2314 75.2148 28.9795C73.5566 28.165 72.7275 27.0459 72.7275 25.6221C72.7275 24.9131 72.9326 24.2891 73.3428 23.75C73.7588 23.2051 74.3447 22.7832 75.1006 22.4844C75.8564 22.1797 76.7061 22.0273 77.6494 22.0273C78.5693 22.0273 79.3926 22.1914 80.1191 22.5195C80.8516 22.8477 81.4199 23.3164 81.8242 23.9258C82.2285 24.5293 82.4307 25.2207 82.4307 26H79.3545C79.3545 25.4785 79.1934 25.0742 78.8711 24.7871C78.5547 24.5 78.124 24.3564 77.5791 24.3564C77.0283 24.3564 76.5918 24.4795 76.2695 24.7256C75.9531 24.9658 75.7949 25.2734 75.7949 25.6484C75.7949 25.9766 75.9707 26.2754 76.3223 26.5449C76.6738 26.8086 77.292 27.084 78.1768 27.3711C79.0615 27.6523 79.7881 27.957 80.3564 28.2852C81.7393 29.082 82.4307 30.1807 82.4307 31.5811C82.4307 32.7002 82.0088 33.5791 81.165 34.2178C80.3213 34.8564 79.1641 35.1758 77.6934 35.1758C76.6562 35.1758 75.7158 34.9912 74.8721 34.6221C74.0342 34.2471 73.4014 33.7373 72.9736 33.0928C72.5518 32.4424 72.3408 31.6953 72.3408 30.8516H75.4346C75.4346 31.5371 75.6104 32.0439 75.9619 32.3721C76.3193 32.6943 76.8965 32.8555 77.6934 32.8555C78.2031 32.8555 78.6045 32.7471 78.8975 32.5303C79.1963 32.3076 79.3457 31.9971 79.3457 31.5986ZM91.9492 29.5771H87.0977V32.627H92.8281V35H84.0127V22.2031H92.8457V24.585H87.0977V27.2832H91.9492V29.5771ZM103.252 27.7578L105.607 22.2031H108.938L104.816 30.4033V35H101.688V30.4033L97.5742 22.2031H100.888L103.252 27.7578ZM120.443 28.8652C120.443 30.1133 120.212 31.2178 119.749 32.1787C119.286 33.1396 118.627 33.8809 117.771 34.4023C116.922 34.918 115.952 35.1758 114.862 35.1758C113.772 35.1758 112.806 34.9268 111.962 34.4287C111.118 33.9248 110.459 33.207 109.984 32.2754C109.516 31.3438 109.27 30.2744 109.246 29.0674V28.3467C109.246 27.0928 109.475 25.9883 109.932 25.0332C110.395 24.0723 111.054 23.3311 111.909 22.8096C112.771 22.2881 113.749 22.0273 114.845 22.0273C115.929 22.0273 116.896 22.2852 117.745 22.8008C118.595 23.3164 119.254 24.0518 119.723 25.0068C120.197 25.9561 120.438 27.0459 120.443 28.2764V28.8652ZM117.306 28.3291C117.306 27.0576 117.092 26.0938 116.664 25.4375C116.242 24.7754 115.636 24.4443 114.845 24.4443C113.298 24.4443 112.48 25.6045 112.393 27.9248L112.384 28.8652C112.384 30.1191 112.592 31.083 113.008 31.7568C113.424 32.4307 114.042 32.7676 114.862 32.7676C115.642 32.7676 116.242 32.4365 116.664 31.7744C117.086 31.1123 117.3 30.1602 117.306 28.918V28.3291ZM132.071 22.2031V30.5791C132.071 31.5283 131.869 32.3516 131.465 33.0488C131.061 33.7402 130.48 34.2676 129.725 34.6309C128.969 34.9941 128.075 35.1758 127.044 35.1758C125.485 35.1758 124.258 34.7715 123.361 33.9629C122.465 33.1543 122.008 32.0469 121.99 30.6406V22.2031H125.093V30.7021C125.128 32.1025 125.778 32.8027 127.044 32.8027C127.683 32.8027 128.166 32.627 128.494 32.2754C128.822 31.9238 128.986 31.3525 128.986 30.5615V22.2031H132.071ZM138.76 30.4824H137.09V35H134.005V22.2031H139.041C140.559 22.2031 141.745 22.54 142.601 23.2139C143.456 23.8877 143.884 24.8398 143.884 26.0703C143.884 26.9609 143.702 27.6992 143.339 28.2852C142.981 28.8711 142.419 29.3457 141.651 29.709L144.323 34.8682V35H141.019L138.76 30.4824ZM137.09 28.1006H139.041C139.627 28.1006 140.066 27.9482 140.359 27.6436C140.658 27.333 140.808 26.9023 140.808 26.3516C140.808 25.8008 140.658 25.3701 140.359 25.0596C140.061 24.7432 139.621 24.585 139.041 24.585H137.09V28.1006ZM158.289 29.9023H153.314V35H150.229V22.2031H158.79V24.585H153.314V27.5293H158.289V29.9023ZM165.654 32.6094H161.427L160.688 35H157.393L162.086 22.2031H164.986L169.715 35H166.401L165.654 32.6094ZM162.165 30.2275H164.916L163.536 25.7891L162.165 30.2275ZM174.936 31.5195L177.484 22.2031H180.93L176.623 35H173.248L168.977 22.2031H172.396L174.936 31.5195ZM192.584 28.8652C192.584 30.1133 192.353 31.2178 191.89 32.1787C191.427 33.1396 190.768 33.8809 189.912 34.4023C189.062 34.918 188.093 35.1758 187.003 35.1758C185.913 35.1758 184.946 34.9268 184.103 34.4287C183.259 33.9248 182.6 33.207 182.125 32.2754C181.656 31.3438 181.41 30.2744 181.387 29.0674V28.3467C181.387 27.0928 181.615 25.9883 182.072 25.0332C182.535 24.0723 183.194 23.3311 184.05 22.8096C184.911 22.2881 185.89 22.0273 186.985 22.0273C188.069 22.0273 189.036 22.2852 189.886 22.8008C190.735 23.3164 191.395 24.0518 191.863 25.0068C192.338 25.9561 192.578 27.0459 192.584 28.2764V28.8652ZM189.446 28.3291C189.446 27.0576 189.232 26.0938 188.805 25.4375C188.383 24.7754 187.776 24.4443 186.985 24.4443C185.438 24.4443 184.621 25.6045 184.533 27.9248L184.524 28.8652C184.524 30.1191 184.732 31.083 185.148 31.7568C185.564 32.4307 186.183 32.7676 187.003 32.7676C187.782 32.7676 188.383 32.4365 188.805 31.7744C189.227 31.1123 189.44 30.1602 189.446 28.918V28.3291ZM198.93 30.4824H197.26V35H194.175V22.2031H199.211C200.729 22.2031 201.915 22.54 202.771 23.2139C203.626 23.8877 204.054 24.8398 204.054 26.0703C204.054 26.9609 203.872 27.6992 203.509 28.2852C203.151 28.8711 202.589 29.3457 201.821 29.709L204.493 34.8682V35H201.188L198.93 30.4824ZM197.26 28.1006H199.211C199.797 28.1006 200.236 27.9482 200.529 27.6436C200.828 27.333 200.978 26.9023 200.978 26.3516C200.978 25.8008 200.828 25.3701 200.529 25.0596C200.23 24.7432 199.791 24.585 199.211 24.585H197.26V28.1006ZM209.204 35H206.128V22.2031H209.204V35ZM221.131 24.585H217.29V35H214.205V24.585H210.435V22.2031H221.131V24.585ZM230.377 29.5771H225.525V32.627H231.256V35H222.44V22.2031H231.273V24.585H225.525V27.2832H230.377V29.5771Z" fill="white"/>
</g>
<defs>
<filter id="filter0_d" x="0" y="0" width="253" height="63" filterUnits="userSpaceOnUse" color-interpolation-filters="sRGB">
<feFlood flood-opacity="0" result="BackgroundImageFix"/>
<feColorMatrix in="SourceAlpha" type="matrix" values="0 0 0 0 0 0 0 0 0 0 0 0 0 0 0 0 0 0 127 0"/>
<feOffset dy="4"/>
<feGaussianBlur stdDeviation="2"/>
<feColorMatrix type="matrix" values="0 0 0 0 0 0 0 0 0 0 0 0 0 0 0 0 0 0 0.25 0"/>
<feBlend mode="normal" in2="BackgroundImageFix" result="effect1_dropShadow"/>
<feBlend mode="normal" in="SourceGraphic" in2="effect1_dropShadow" result="shape"/>
</filter>
<linearGradient id="paint0_linear" x1="-41.7461" y1="-2.89151e-07" x2="88.1037" y2="175.585" gradientUnits="userSpaceOnUse">
<stop stop-color="#4BD8B5"/>
<stop offset="1" stop-color="#49D6DF"/>
</linearGradient>
</defs>
</svg>
