<svg width="253" height="63" viewBox="0 0 253 63" fill="none" xmlns="http://www.w3.org/2000/svg">
<g filter="url(#filter0_d)">
<rect x="4" width="245" height="55" rx="3" fill="url(#paint0_linear)"/>
<path d="M93.2148 35V22.2031H97.3369C98.4678 22.2031 99.4844 22.4609 100.387 22.9766C101.289 23.4863 101.992 24.21 102.496 25.1475C103.006 26.0791 103.264 27.125 103.27 28.2852V28.874C103.27 30.0459 103.021 31.0977 102.522 32.0293C102.03 32.9551 101.333 33.6816 100.431 34.209C99.5342 34.7305 98.5322 34.9941 97.4248 35H93.2148ZM96.2998 24.585V32.627H97.3721C98.2568 32.627 98.9365 32.3135 99.4111 31.6865C99.8857 31.0537 100.123 30.1162 100.123 28.874V28.3203C100.123 27.084 99.8857 26.1523 99.4111 25.5254C98.9365 24.8984 98.2451 24.585 97.3369 24.585H96.2998ZM115.688 28.8652C115.688 30.1133 115.457 31.2178 114.994 32.1787C114.531 33.1396 113.872 33.8809 113.017 34.4023C112.167 34.918 111.197 35.1758 110.107 35.1758C109.018 35.1758 108.051 34.9268 107.207 34.4287C106.363 33.9248 105.704 33.207 105.229 32.2754C104.761 31.3438 104.515 30.2744 104.491 29.0674V28.3467C104.491 27.0928 104.72 25.9883 105.177 25.0332C105.64 24.0723 106.299 23.3311 107.154 22.8096C108.016 22.2881 108.994 22.0273 110.09 22.0273C111.174 22.0273 112.141 22.2852 112.99 22.8008C113.84 23.3164 114.499 24.0518 114.968 25.0068C115.442 25.9561 115.683 27.0459 115.688 28.2764V28.8652ZM112.551 28.3291C112.551 27.0576 112.337 26.0938 111.909 25.4375C111.487 24.7754 110.881 24.4443 110.09 24.4443C108.543 24.4443 107.726 25.6045 107.638 27.9248L107.629 28.8652C107.629 30.1191 107.837 31.083 108.253 31.7568C108.669 32.4307 109.287 32.7676 110.107 32.7676C110.887 32.7676 111.487 32.4365 111.909 31.7744C112.331 31.1123 112.545 30.1602 112.551 28.918V28.3291ZM127.967 35H124.899L120.364 27.0371V35H117.279V22.2031H120.364L124.891 30.166V22.2031H127.967V35ZM137.345 32.6094H133.117L132.379 35H129.083L133.776 22.2031H136.677L141.405 35H138.092L137.345 32.6094ZM133.855 30.2275H136.606L135.227 25.7891L133.855 30.2275ZM151.337 24.585H147.496V35H144.411V24.585H140.641V22.2031H151.337V24.585ZM160.583 29.5771H155.731V32.627H161.462V35H152.646V22.2031H161.479V24.585H155.731V27.2832H160.583V29.5771Z" fill="white"/>
</g>
<defs>
<filter id="filter0_d" x="0" y="0" width="253" height="63" filterUnits="userSpaceOnUse" color-interpolation-filters="sRGB">
<feFlood flood-opacity="0" result="BackgroundImageFix"/>
<feColorMatrix in="SourceAlpha" type="matrix" values="0 0 0 0 0 0 0 0 0 0 0 0 0 0 0 0 0 0 127 0"/>
<feOffset dy="4"/>
<feGaussianBlur stdDeviation="2"/>
<feColorMatrix type="matrix" values="0 0 0 0 0 0 0 0 0 0 0 0 0 0 0 0 0 0 0.25 0"/>
<feBlend mode="normal" in2="BackgroundImageFix" result="effect1_dropShadow"/>
<feBlend mode="normal" in="SourceGraphic" in2="effect1_dropShadow" result="shape"/>
</filter>
<linearGradient id="paint0_linear" x1="-41.7461" y1="-2.89151e-07" x2="88.1037" y2="175.585" gradientUnits="userSpaceOnUse">
<stop stop-color="#4BD8B5"/>
<stop offset="1" stop-color="#49D6DF"/>
</linearGradient>
</defs>
</svg>
