<svg width="86" height="88" viewBox="0 0 86 88" fill="none" xmlns="http://www.w3.org/2000/svg">
<g filter="url(#filter0_d)">
<path d="M63.7032 55.2291L52.1991 61.1382C51.2029 60.1345 49.8234 59.5119 48.301 59.5119H40.3736C40.0209 59.5119 39.8919 59.4902 39.8531 59.481C39.7813 59.4322 39.6021 59.2636 39.4567 59.1268L39.381 59.0554C32.9285 52.9791 27.4761 53.3645 21.2751 55.8119C20.3047 56.1947 20.2863 56.1955 19.3244 56.2394L17.5781 56.2416C17.033 54.6965 15.5603 53.5859 13.8327 53.5859H7.99985C5.80995 53.5859 4.02832 55.3696 4.02832 57.562V72.8592C4.02832 75.0492 5.80995 76.8309 7.99985 76.8309H13.8325C15.5603 76.8309 17.033 75.7216 17.5781 74.178H20.7856C21.1487 74.2094 21.5028 74.2833 21.8479 74.3996L36.9311 78.4328C37.5915 78.6119 38.1979 78.7881 38.7844 78.9586C40.7323 79.5246 42.3697 80.0004 44.077 80.0002C46.0058 80.0002 48.0237 79.3929 50.6782 77.6222C50.6915 77.6133 50.7046 77.6044 50.7176 77.5952L69.3148 64.3521C71.7594 62.608 72.472 59.4599 70.9718 57.0281C69.4889 54.6306 66.3631 53.8576 63.7032 55.2291ZM14.6792 72.8594C14.6792 73.3184 14.2914 73.7062 13.8325 73.7062H7.99985C7.5408 73.7062 7.15317 73.3184 7.15317 72.8594V57.5621C7.15317 57.1008 7.54096 56.7109 7.99985 56.7109H13.8325C14.2916 56.7109 14.6792 57.1008 14.6792 57.5621V72.8594ZM67.5008 61.8077L48.9244 75.036C45.1433 77.5526 43.5342 77.0848 39.656 75.958C39.0563 75.7837 38.4362 75.6036 37.7434 75.4156L22.6562 71.3813C22.0492 71.193 21.4254 71.0837 20.7853 71.0533H17.8041V59.3681L19.4666 59.3611C20.6558 59.3069 21.0245 59.27 22.422 58.7188C27.7967 56.5974 31.9443 56.3447 37.24 61.3316L37.3148 61.402C38.2267 62.2605 38.7916 62.6366 40.3736 62.6366H48.301C49.608 62.6366 50.6712 63.7 50.6712 65.0069C50.6712 66.3116 49.608 67.3729 48.301 67.3729H35.449C34.586 67.3729 33.8865 68.0724 33.8865 68.9353C33.8865 69.7983 34.586 70.4978 35.449 70.4978H48.301C51.331 70.4978 53.796 68.0346 53.796 65.0069C53.796 64.6241 53.7564 64.2504 53.6815 63.8895L65.1328 58.0074C66.1767 57.4695 67.6046 57.5247 68.313 58.6704C68.9376 59.683 68.588 61.0321 67.5008 61.8077Z" fill="url(#paint0_linear)"/>
<path d="M39.9923 36.9558C38.301 37.7797 37.1325 39.5162 37.1325 41.5206C37.1325 43.7307 38.5555 45.6137 40.5337 46.3062V48.6332C40.5337 51.4826 42.8498 53.8008 45.6966 53.8008H52.6186C55.4678 53.8008 57.786 51.4826 57.786 48.6332V46.3062C59.7642 45.6137 61.1872 43.7305 61.1872 41.5206C61.1872 39.516 60.0187 37.7795 58.3272 36.9557C59.0114 34.4139 60.3983 32.5214 61.857 30.5361C64.101 27.4822 66.6443 24.0208 66.6388 17.9238C66.6388 17.3794 66.6163 16.8207 66.572 16.2631C66.5035 15.4028 65.7525 14.763 64.8905 14.8294C64.0304 14.8978 63.3885 15.6506 63.457 16.5109C63.4948 16.9863 63.514 17.4616 63.514 17.925C63.5185 22.9973 61.4883 25.7604 59.3387 28.6858C57.7077 30.9055 56.0292 33.1937 55.2294 36.4459H43.0897C42.2899 33.194 40.6109 30.906 38.9795 28.6864C36.8293 25.7611 34.7985 22.9979 34.8052 17.9255C34.8121 12.5169 37.1293 9.10109 39.0722 7.18806C41.7474 4.55381 45.4117 3.07326 49.1375 3.12576C49.1525 3.12592 49.1673 3.12592 49.1823 3.12576C52.218 3.07967 55.2625 4.06915 57.748 5.90672C58.4416 6.41966 59.4203 6.27295 59.9332 5.57923C60.4462 4.88536 60.2996 3.90697 59.6057 3.39403C56.5795 1.15695 52.8706 -0.0465861 49.1595 0.00138035C44.6146 -0.0540857 40.1412 1.75067 36.88 4.96208C33.4851 8.30504 31.6872 12.7865 31.6807 17.9219C31.6726 24.0215 34.2171 27.4833 36.462 30.5375C37.9208 32.5223 39.3081 34.4145 39.9923 36.9558ZM54.6613 48.6334C54.6613 49.7597 53.7451 50.6761 52.6187 50.6761H45.6967C44.5729 50.6761 43.6587 49.7597 43.6587 48.6334V46.5908H54.6613V48.6334ZM42.2069 39.571H56.1129C57.1879 39.571 58.0625 40.4457 58.0625 41.5206C58.0625 42.5932 57.188 43.4658 56.1129 43.4658H42.2069C41.1319 43.4658 40.2573 42.5932 40.2573 41.5206C40.2573 40.4457 41.1319 39.571 42.2069 39.571Z" fill="url(#paint1_linear)"/>
<path d="M50.7225 11.414C50.7225 10.5511 50.023 9.85156 49.1601 9.85156C48.2972 9.85156 47.5977 10.5511 47.5977 11.414V21.1043C47.5977 21.9672 48.2972 22.6667 49.1601 22.6667C50.023 22.6667 50.7225 21.9672 50.7225 21.1043V11.414Z" fill="url(#paint2_linear)"/>
<path d="M49.1602 26.6094C48.2972 26.6094 47.5977 27.3089 47.5977 28.1719V28.1808C47.5977 29.0437 48.2972 29.7389 49.1602 29.7389C50.0231 29.7389 50.7227 29.035 50.7227 28.172C50.7227 27.3091 50.0231 26.6094 49.1602 26.6094Z" fill="url(#paint3_linear)"/>
<path d="M80.4092 17.9121H74.0629C73.2 17.9121 72.5005 18.6116 72.5005 19.4745C72.5005 20.3375 73.2 21.037 74.0629 21.037H80.4092C81.2721 21.037 81.9716 20.3375 81.9716 19.4745C81.9716 18.6116 81.2721 17.9121 80.4092 17.9121Z" fill="url(#paint4_linear)"/>
<path d="M71.4377 7.84684C71.737 7.84684 72.0397 7.7609 72.3069 7.58154L77.5725 4.04733C78.2891 3.56642 78.48 2.59584 77.9991 1.87931C77.5183 1.16294 76.5477 0.971859 75.8311 1.45277L70.5654 4.98698C69.8489 5.46789 69.6579 6.43862 70.1388 7.15499C70.4406 7.60419 70.9344 7.84684 71.4377 7.84684Z" fill="url(#paint5_linear)"/>
<path d="M77.573 34.901L72.3073 31.3668C71.5908 30.8859 70.6201 31.077 70.1393 31.7934C69.6584 32.5097 69.8495 33.4805 70.5658 33.9614L75.8315 37.4956C76.0987 37.675 76.4013 37.7609 76.7007 37.7609C77.2039 37.7609 77.698 37.5183 77.9995 37.0691C78.4804 36.3525 78.2895 35.3818 77.573 34.901Z" fill="url(#paint6_linear)"/>
<path d="M17.9111 21.037H24.2529C25.1159 21.037 25.8154 20.3375 25.8154 19.4745C25.8154 18.6116 25.1159 17.9121 24.2529 17.9121H17.9111C17.0481 17.9121 16.3486 18.6116 16.3486 19.4745C16.3486 20.3375 17.0481 21.037 17.9111 21.037Z" fill="url(#paint7_linear)"/>
<path d="M20.7475 4.04733L26.0132 7.58154C26.2804 7.7609 26.583 7.84684 26.8824 7.84684C27.3856 7.84684 27.8797 7.60419 28.1812 7.15499C28.6621 6.43862 28.4711 5.46789 27.7547 4.98698L22.489 1.45277C21.7725 0.971859 20.8019 1.16294 20.321 1.87931C19.8401 2.59569 20.031 3.56642 20.7475 4.04733Z" fill="url(#paint8_linear)"/>
<path d="M26.0132 31.3668L20.7475 34.901C20.031 35.382 19.8401 36.3527 20.321 37.0691C20.6225 37.5183 21.1164 37.7609 21.6198 37.7609C21.9192 37.7609 22.2218 37.675 22.489 37.4956L27.7547 33.9614C28.4712 33.4805 28.6621 32.5097 28.1812 31.7934C27.7003 31.077 26.7296 30.8859 26.0132 31.3668Z" fill="url(#paint9_linear)"/>
<path d="M61.9748 10.8183C62.2795 11.1228 62.6778 11.2749 63.0764 11.2749C63.4764 11.2749 63.8767 11.1218 64.1824 10.8161C64.7925 10.206 64.7903 9.21441 64.1802 8.6041C63.57 7.99395 62.5806 7.99395 61.9703 8.6041C61.3602 9.21426 61.3602 10.2036 61.9703 10.8139L61.9748 10.8183Z" fill="url(#paint10_linear)"/>
</g>
<defs>
<filter id="filter0_d" x="-1" y="0" width="88" height="88" filterUnits="userSpaceOnUse" color-interpolation-filters="sRGB">
<feFlood flood-opacity="0" result="BackgroundImageFix"/>
<feColorMatrix in="SourceAlpha" type="matrix" values="0 0 0 0 0 0 0 0 0 0 0 0 0 0 0 0 0 0 127 0"/>
<feOffset dy="4"/>
<feGaussianBlur stdDeviation="2"/>
<feColorMatrix type="matrix" values="0 0 0 0 0 0 0 0 0 0 0 0 0 0 0 0 0 0 0.25 0"/>
<feBlend mode="normal" in2="BackgroundImageFix" result="effect1_dropShadow"/>
<feBlend mode="normal" in="SourceGraphic" in2="effect1_dropShadow" result="shape"/>
</filter>
<linearGradient id="paint0_linear" x1="-8.61742" y1="53.5859" x2="54.6089" y2="102.796" gradientUnits="userSpaceOnUse">
<stop stop-color="#4BD8B5"/>
<stop offset="1" stop-color="#49D6DF"/>
</linearGradient>
<linearGradient id="paint1_linear" x1="25.1533" y1="-2.82846e-07" x2="75.5965" y2="9.94958" gradientUnits="userSpaceOnUse">
<stop stop-color="#4BD8B5"/>
<stop offset="1" stop-color="#49D6DF"/>
</linearGradient>
<linearGradient id="paint2_linear" x1="47.0142" y1="9.85156" x2="51.6731" y2="10.1964" gradientUnits="userSpaceOnUse">
<stop stop-color="#4BD8B5"/>
<stop offset="1" stop-color="#49D6DF"/>
</linearGradient>
<linearGradient id="paint3_linear" x1="47.0142" y1="26.6094" x2="51.3046" y2="27.9099" gradientUnits="userSpaceOnUse">
<stop stop-color="#4BD8B5"/>
<stop offset="1" stop-color="#49D6DF"/>
</linearGradient>
<linearGradient id="paint4_linear" x1="70.7321" y1="17.9121" x2="78.4212" y2="24.9866" gradientUnits="userSpaceOnUse">
<stop stop-color="#4BD8B5"/>
<stop offset="1" stop-color="#49D6DF"/>
</linearGradient>
<linearGradient id="paint5_linear" x1="68.3068" y1="1.1875" x2="79.2801" y2="5.38466" gradientUnits="userSpaceOnUse">
<stop stop-color="#4BD8B5"/>
<stop offset="1" stop-color="#49D6DF"/>
</linearGradient>
<linearGradient id="paint6_linear" x1="68.3073" y1="31.1016" x2="79.2806" y2="35.2987" gradientUnits="userSpaceOnUse">
<stop stop-color="#4BD8B5"/>
<stop offset="1" stop-color="#49D6DF"/>
</linearGradient>
<linearGradient id="paint7_linear" x1="14.581" y1="17.9121" x2="22.2699" y2="24.983" gradientUnits="userSpaceOnUse">
<stop stop-color="#4BD8B5"/>
<stop offset="1" stop-color="#49D6DF"/>
</linearGradient>
<linearGradient id="paint8_linear" x1="18.4889" y1="1.1875" x2="29.4622" y2="5.38465" gradientUnits="userSpaceOnUse">
<stop stop-color="#4BD8B5"/>
<stop offset="1" stop-color="#49D6DF"/>
</linearGradient>
<linearGradient id="paint9_linear" x1="18.4889" y1="31.1016" x2="29.4623" y2="35.2987" gradientUnits="userSpaceOnUse">
<stop stop-color="#4BD8B5"/>
<stop offset="1" stop-color="#49D6DF"/>
</linearGradient>
<linearGradient id="paint10_linear" x1="60.929" y1="8.14648" x2="65.2205" y2="9.4483" gradientUnits="userSpaceOnUse">
<stop stop-color="#4BD8B5"/>
<stop offset="1" stop-color="#49D6DF"/>
</linearGradient>
</defs>
</svg>
