<svg width="115" height="29" viewBox="0 0 115 29" fill="none" xmlns="http://www.w3.org/2000/svg">
<circle cx="17" cy="15" r="7.5" stroke="url(#paint0_linear)"/>
<path d="M20 15.5L16.25 17.6651V13.3349L20 15.5Z" fill="url(#paint1_linear)"/>
<path d="M36.8584 15.5532L37.9185 9.75781H40.1274L38.166 19H35.8555L34.6177 13.7314L33.4053 19H31.1011L29.1333 9.75781H31.3486L32.4087 15.5532L33.6782 9.75781H35.5698L36.8584 15.5532ZM44.5518 19C44.4756 18.8604 44.4079 18.6551 44.3486 18.3843C43.9551 18.8794 43.4049 19.127 42.6982 19.127C42.0508 19.127 41.5007 18.9323 41.0479 18.543C40.5951 18.1494 40.3687 17.6564 40.3687 17.064C40.3687 16.3192 40.6437 15.7563 41.1938 15.3755C41.744 14.9946 42.5438 14.8042 43.5933 14.8042H44.2534V14.4424C44.2534 13.8118 43.9805 13.4966 43.4346 13.4966C42.9268 13.4966 42.6729 13.7463 42.6729 14.2456H40.5337C40.5337 13.5812 40.8151 13.0417 41.3779 12.627C41.945 12.2122 42.6665 12.0049 43.5425 12.0049C44.4185 12.0049 45.1104 12.2186 45.6182 12.646C46.126 13.0734 46.3862 13.6595 46.3989 14.4043V17.4448C46.4074 18.0754 46.5047 18.5578 46.6909 18.8921V19H44.5518ZM43.2124 17.6035C43.479 17.6035 43.6991 17.5464 43.8726 17.4321C44.0503 17.3179 44.1772 17.1888 44.2534 17.0449V15.9468H43.6313C42.8866 15.9468 42.5142 16.2811 42.5142 16.9497C42.5142 17.1444 42.5798 17.3031 42.7109 17.4258C42.8421 17.5443 43.0093 17.6035 43.2124 17.6035ZM50.0806 10.4243V12.1318H51.2104V13.6172H50.0806V16.7593C50.0806 17.0174 50.1271 17.1973 50.2202 17.2988C50.3133 17.4004 50.4974 17.4512 50.7725 17.4512C50.984 17.4512 51.1618 17.4385 51.3057 17.4131V18.9429C50.9206 19.0656 50.5186 19.127 50.0996 19.127C49.3633 19.127 48.8195 18.9535 48.4683 18.6064C48.117 18.2594 47.9414 17.7326 47.9414 17.0259V13.6172H47.0654V12.1318H47.9414V10.4243H50.0806ZM54.9619 17.4766C55.2624 17.4766 55.4951 17.3962 55.6602 17.2354C55.8252 17.0703 55.9056 16.8418 55.9014 16.5498H57.9072C57.9072 17.3031 57.6364 17.9209 57.0947 18.4033C56.5573 18.8857 55.8633 19.127 55.0127 19.127C54.014 19.127 53.2269 18.8138 52.6514 18.1875C52.0758 17.5612 51.7881 16.6937 51.7881 15.585V15.4961C51.7881 14.8021 51.915 14.1906 52.1689 13.6616C52.4271 13.1284 52.7974 12.7201 53.2798 12.4365C53.7622 12.1488 54.3335 12.0049 54.9937 12.0049C55.8866 12.0049 56.5954 12.2524 57.1201 12.7476C57.6449 13.2427 57.9072 13.9134 57.9072 14.7598H55.9014C55.9014 14.4043 55.8146 14.1313 55.6411 13.9409C55.4676 13.7505 55.2349 13.6553 54.9429 13.6553C54.3885 13.6553 54.0648 14.0086 53.9717 14.7153C53.9421 14.9396 53.9272 15.2485 53.9272 15.6421C53.9272 16.3319 54.0098 16.8101 54.1748 17.0767C54.3398 17.3433 54.6022 17.4766 54.9619 17.4766ZM60.9033 12.8682C61.3604 12.2926 61.9443 12.0049 62.6553 12.0049C63.4128 12.0049 63.984 12.2292 64.3691 12.6777C64.7542 13.1263 64.951 13.7886 64.9595 14.6646V19H62.814V14.7153C62.814 14.3514 62.7399 14.0848 62.5918 13.9155C62.4437 13.742 62.1919 13.6553 61.8364 13.6553C61.3963 13.6553 61.0853 13.7949 60.9033 14.0742V19H58.7642V9.25H60.9033V12.8682ZM69.1172 15.5024C69.1172 14.8169 69.2505 14.2075 69.5171 13.6743C69.7837 13.1369 70.1667 12.7243 70.666 12.4365C71.1654 12.1488 71.7515 12.0049 72.4243 12.0049C73.4526 12.0049 74.263 12.3244 74.8555 12.9634C75.4479 13.5981 75.7441 14.4635 75.7441 15.5596V15.6357C75.7441 16.7064 75.4458 17.557 74.8491 18.1875C74.2567 18.8138 73.4526 19.127 72.437 19.127C71.4595 19.127 70.6745 18.835 70.082 18.251C69.4896 17.6628 69.1701 16.8672 69.1235 15.8643L69.1172 15.5024ZM71.2563 15.6357C71.2563 16.2705 71.3558 16.736 71.5547 17.0322C71.7536 17.3285 72.0477 17.4766 72.437 17.4766C73.1987 17.4766 73.5881 16.8905 73.605 15.7183V15.5024C73.605 14.271 73.2114 13.6553 72.4243 13.6553C71.7091 13.6553 71.3219 14.1864 71.2627 15.2485L71.2563 15.6357ZM78.6514 12.1318L78.7212 12.938C79.1951 12.3159 79.849 12.0049 80.6826 12.0049C81.3978 12.0049 81.931 12.2186 82.2822 12.646C82.6377 13.0734 82.8218 13.7166 82.8345 14.5757V19H80.689V14.6646C80.689 14.3175 80.6191 14.0636 80.4795 13.9028C80.3398 13.7378 80.0859 13.6553 79.7178 13.6553C79.2988 13.6553 78.9878 13.8203 78.7847 14.1504V19H76.6455V12.1318H78.6514ZM86.2812 19H84.1357V9.25H86.2812V19ZM89.8613 19H87.7158V12.1318H89.8613V19ZM87.5889 10.3608C87.5889 10.0562 87.6989 9.80648 87.9189 9.61182C88.139 9.41715 88.4246 9.31982 88.7759 9.31982C89.1271 9.31982 89.4128 9.41715 89.6328 9.61182C89.8529 9.80648 89.9629 10.0562 89.9629 10.3608C89.9629 10.6655 89.8529 10.9152 89.6328 11.1099C89.4128 11.3045 89.1271 11.4019 88.7759 11.4019C88.4246 11.4019 88.139 11.3045 87.9189 11.1099C87.6989 10.9152 87.5889 10.6655 87.5889 10.3608ZM93.1494 12.1318L93.2192 12.938C93.6932 12.3159 94.347 12.0049 95.1807 12.0049C95.8958 12.0049 96.429 12.2186 96.7803 12.646C97.1357 13.0734 97.3198 13.7166 97.3325 14.5757V19H95.187V14.6646C95.187 14.3175 95.1172 14.0636 94.9775 13.9028C94.8379 13.7378 94.584 13.6553 94.2158 13.6553C93.7969 13.6553 93.4858 13.8203 93.2827 14.1504V19H91.1436V12.1318H93.1494ZM101.846 19.127C100.792 19.127 99.9393 18.8138 99.2876 18.1875C98.6359 17.557 98.3101 16.7381 98.3101 15.731V15.5532C98.3101 14.8507 98.4391 14.2308 98.6973 13.6934C98.9596 13.1559 99.3405 12.7412 99.8398 12.4492C100.339 12.153 100.932 12.0049 101.617 12.0049C102.582 12.0049 103.344 12.3053 103.902 12.9062C104.461 13.5029 104.74 14.3366 104.74 15.4072V16.2388H100.487C100.563 16.6239 100.731 16.9264 100.989 17.1465C101.247 17.3665 101.581 17.4766 101.992 17.4766C102.669 17.4766 103.198 17.2396 103.579 16.7656L104.556 17.9209C104.29 18.2891 103.911 18.5832 103.42 18.8032C102.933 19.019 102.409 19.127 101.846 19.127ZM101.604 13.6553C100.978 13.6553 100.606 14.07 100.487 14.8994H102.646V14.7344C102.654 14.3916 102.567 14.1271 102.385 13.9409C102.203 13.7505 101.943 13.6553 101.604 13.6553Z" fill="url(#paint2_linear)"/>
<rect x="0.5" y="0.5" width="114" height="28" rx="2.5" stroke="url(#paint3_linear)"/>
<defs>
<linearGradient id="paint0_linear" x1="6.0125" y1="7" x2="27.9743" y2="13.6667" gradientUnits="userSpaceOnUse">
<stop stop-color="#4BD8B5"/>
<stop offset="1" stop-color="#49D6DF"/>
</linearGradient>
<linearGradient id="paint1_linear" x1="20" y1="12.0664" x2="17.9167" y2="18.9295" gradientUnits="userSpaceOnUse">
<stop stop-color="#4BD8B5"/>
<stop offset="1" stop-color="#49D6DF"/>
</linearGradient>
<linearGradient id="paint2_linear" x1="14.6227" y1="7" x2="48.2935" y2="59.4682" gradientUnits="userSpaceOnUse">
<stop stop-color="#4BD8B5"/>
<stop offset="1" stop-color="#49D6DF"/>
</linearGradient>
<linearGradient id="paint3_linear" x1="-21.4727" y1="-1.52461e-07" x2="48.9202" y2="84.7366" gradientUnits="userSpaceOnUse">
<stop stop-color="#4BD8B5"/>
<stop offset="1" stop-color="#49D6DF"/>
</linearGradient>
</defs>
</svg>
