<svg width="88" height="88" viewBox="0 0 88 88" fill="none" xmlns="http://www.w3.org/2000/svg">
<g clip-path="url(#clip0)" filter="url(#filter0_d)">
<path d="M79.3291 25.7953L83.9398 11.9595C84.0589 11.6022 83.9989 11.2094 83.7788 10.9037C83.5584 10.5981 83.2048 10.4172 82.8281 10.4172H67.2688V5.90625C67.2688 5.25906 66.7441 4.73438 66.0969 4.73438H51.1594C50.5122 4.73438 49.9875 5.25906 49.9875 5.90625C49.9875 6.55344 50.5122 7.07812 51.1594 7.07812H64.925V33.1453H40.4367V7.07812H45.6906C46.3378 7.07812 46.8625 6.55344 46.8625 5.90625C46.8625 5.25906 46.3378 4.73438 45.6906 4.73438H40.4367V2.75031C40.4367 1.23375 39.203 0 37.6864 0H34.5297C33.0131 0 31.7794 1.23375 31.7794 2.75031V38.6703H28.7531C27.1356 38.6703 25.5342 39.2066 24.2441 40.1803L22.9628 41.1475C22.4462 41.5373 22.3436 42.2722 22.7336 42.7887C22.9641 43.0941 23.3147 43.2547 23.6698 43.2547C23.9156 43.2547 24.1636 43.1775 24.375 43.018L25.6562 42.0509C26.5422 41.3823 27.6422 41.0141 28.7534 41.0141H31.7798V44.9844H29.1625C28.5153 44.9844 27.9906 45.5091 27.9906 46.1562C27.9906 46.8034 28.5153 47.3281 29.1625 47.3281H45.5031C46.6006 47.3281 47.5242 48.1852 47.5617 49.2387C47.5813 49.7837 47.3841 50.2992 47.007 50.6902C46.6294 51.0814 46.1219 51.297 45.5781 51.297C45.575 51.297 45.5722 51.2975 45.5691 51.2975H32.9514C32.3042 51.2975 31.7795 51.8222 31.7795 52.4694C31.7795 53.1166 32.3042 53.6412 32.9514 53.6412L48.6594 53.6406C49.7578 53.6406 50.6819 54.4984 50.7195 55.5517C50.7386 56.0973 50.5409 56.6133 50.1631 57.0045C49.7855 57.3956 49.278 57.6109 48.7344 57.6109H32.9514C32.3042 57.6109 31.7795 58.1356 31.7795 58.7828C31.7795 59.43 32.3042 59.9547 32.9514 59.9547H45.5767H45.5783C46.1217 59.9547 46.6291 60.1703 47.0069 60.5617C47.3842 60.9528 47.5814 61.4681 47.5619 62.013C47.5242 63.0673 46.6008 63.925 45.5033 63.925L32.9514 63.9244C32.3042 63.9244 31.7795 64.4491 31.7795 65.0963C31.7795 65.7434 32.3042 66.2681 32.9514 66.2681H42.4083C42.4128 66.2681 42.4173 66.2688 42.4219 66.2688C42.9656 66.2688 43.4731 66.4842 43.8508 66.8756C44.228 67.2664 44.425 67.7819 44.4055 68.327C44.368 69.3805 43.4437 70.2375 42.3448 70.2375L11.3953 70.2495V48.7484H14.275C15.8934 48.7484 17.495 48.2114 18.7845 47.2366L20.0111 46.31C20.5275 45.9198 20.6298 45.185 20.2397 44.6686C19.8497 44.1522 19.1145 44.0497 18.5983 44.4398L17.3712 45.3667C16.4859 46.0361 15.3863 46.4047 14.2748 46.4047L5.17188 46.4044C4.52469 46.4044 4 46.9291 4 47.5763V71.4227C4 72.0698 4.52469 72.5945 5.17188 72.5945L31.7795 72.5855V77.2498C31.7795 78.7664 33.0133 80.0002 34.5298 80.0002H37.6866C39.2031 80.0002 40.4369 78.7664 40.4369 77.2498V72.582L42.3453 72.5812C44.6909 72.5812 46.6658 70.7102 46.7477 68.4105C46.7756 67.6286 46.5984 66.8742 46.2389 66.2067C48.2475 65.8648 49.8308 64.1519 49.9041 62.0966C49.9319 61.3192 49.7567 60.5692 49.4012 59.9044C50.3305 59.7622 51.1823 59.3231 51.8491 58.6328C52.6725 57.7802 53.1033 56.657 53.0619 55.4694C52.9873 53.3763 51.4317 51.6888 49.3967 51.3564C49.7553 50.6895 49.9319 49.9361 49.9041 49.1553C49.8208 46.8166 47.8877 44.9845 45.5033 44.9845H40.4369V35.4892H48.5111V40C48.5233 40.5533 48.9338 41.1691 49.6859 41.1719H68.9422C69.5894 41.1719 70.1141 40.6472 70.1141 40C70.1141 39.3528 69.5894 38.8281 68.9422 38.8281H56.65L66.4806 35.4253C66.8978 35.2797 67.2948 34.8387 67.2688 34.2788V12.7609H81.2023L76.982 25.4248C76.9019 25.6653 76.9019 25.9253 76.982 26.1659L81.2023 38.8283H74.4109C73.7637 38.8283 73.2391 39.353 73.2391 40.0002C73.2391 40.6473 73.7637 41.172 74.4109 41.172H82.8281C83.2048 41.172 83.5586 40.9909 83.7788 40.6853C83.9989 40.3797 84.0589 39.9869 83.9398 39.6295L79.3291 25.7953ZM6.34375 48.7481H9.05156V70.2508H6.34375V48.7481ZM38.0931 77.2497C38.0931 77.4739 37.9108 77.6562 37.6866 77.6562H34.5298C34.3056 77.6562 34.1233 77.4739 34.1233 77.2497V72.5844L38.0931 72.5828V77.2497ZM34.1233 44.9844V2.75031C34.1233 2.52609 34.3056 2.34375 34.5298 2.34375H37.6866C37.9108 2.34375 38.0931 2.52609 38.0931 2.75031V44.9844H34.1233ZM59.1314 35.4891L50.8547 38.3541V35.4891H59.1314Z" fill="url(#paint0_linear)"/>
</g>
<defs>
<filter id="filter0_d" x="0" y="0" width="88" height="88" filterUnits="userSpaceOnUse" color-interpolation-filters="sRGB">
<feFlood flood-opacity="0" result="BackgroundImageFix"/>
<feColorMatrix in="SourceAlpha" type="matrix" values="0 0 0 0 0 0 0 0 0 0 0 0 0 0 0 0 0 0 127 0"/>
<feOffset dy="4"/>
<feGaussianBlur stdDeviation="2"/>
<feColorMatrix type="matrix" values="0 0 0 0 0 0 0 0 0 0 0 0 0 0 0 0 0 0 0.25 0"/>
<feBlend mode="normal" in2="BackgroundImageFix" result="effect1_dropShadow"/>
<feBlend mode="normal" in="SourceGraphic" in2="effect1_dropShadow" result="shape"/>
</filter>
<linearGradient id="paint0_linear" x1="-10.9375" y1="-4.20583e-07" x2="98.8715" y2="33.3334" gradientUnits="userSpaceOnUse">
<stop stop-color="#4BD8B5"/>
<stop offset="1" stop-color="#49D6DF"/>
</linearGradient>
<clipPath id="clip0">
<rect width="80" height="80" fill="white" transform="translate(4)"/>
</clipPath>
</defs>
</svg>
